<svg width="90" height="30" viewBox="0 0 90 30" fill="none" xmlns="http://www.w3.org/2000/svg">
    <path fill-rule="evenodd" clip-rule="evenodd" d="M30.6839 12.4862C31.6823 6.34755 36.3673 1.50618 42.2977 0.491779V5.11428C38.8027 6.00131 36.0369 8.849 35.1655 12.4862H30.6839ZM30.6282 17.0162C31.4946 23.3304 36.2482 28.3473 42.2977 29.3821V24.7596C38.6847 23.8426 35.8505 20.8301 35.0838 17.0162H30.6282ZM54.1481 17.0162C53.364 20.9159 50.4184 23.9776 46.6888 24.8182V29.4218C52.8549 28.4823 57.7255 23.4153 58.6034 17.0162H54.1481ZM58.5477 12.4862C57.5358 6.26322 52.735 1.37345 46.6888 0.452148V5.05567C50.2993 5.86942 53.1746 8.76431 54.0663 12.4862H58.5477Z" fill="url(#paint0_linear_2725_439)"/>
    <path fill-rule="evenodd" clip-rule="evenodd" d="M25.1784 5.0873V0.452148H0V5.0873H18.9147L0 24.7866V29.4218H25.1784V24.7866H6.20707L25.1784 5.0873Z" fill="url(#paint1_linear_2725_439)"/>
    <path fill-rule="evenodd" clip-rule="evenodd" d="M75.5667 10.7958L64.1289 0.56668L61.2034 4.07467L73.2327 14.8329V29.4218H77.7087V15.083L89.1785 3.78494L86.0935 0.426514L75.5667 10.7958Z" fill="url(#paint2_linear_2725_439)"/>
    <defs>
        <linearGradient id="paint0_linear_2725_439" x1="-3.60206" y1="14.9578" x2="83.8833" y2="14.9578" gradientUnits="userSpaceOnUse">
            <stop stop-color="#C500FC"/>
            <stop offset="1" stop-color="#6919FF"/>
        </linearGradient>
        <linearGradient id="paint1_linear_2725_439" x1="6.71405e-05" y1="14.9241" x2="89.1787" y2="14.9241" gradientUnits="userSpaceOnUse">
            <stop stop-color="#C500FC"/>
            <stop offset="1" stop-color="#6919FF"/>
        </linearGradient>
        <linearGradient id="paint2_linear_2725_439" x1="-2.58084" y1="14.9241" x2="86.5979" y2="14.9241" gradientUnits="userSpaceOnUse">
            <stop stop-color="#C500FC"/>
            <stop offset="1" stop-color="#6919FF"/>
        </linearGradient>
    </defs>
</svg>
